<?xml version="1.0" standalone="no"?>
<!DOCTYPE svg PUBLIC "-//W3C//DTD SVG 20010904//EN"
 "http://www.w3.org/TR/2001/REC-SVG-20010904/DTD/svg10.dtd">
<svg version="1.0" xmlns="http://www.w3.org/2000/svg"
 width="169.000000pt" height="169.000000pt" viewBox="0 0 169.000000 169.000000"
 preserveAspectRatio="xMidYMid meet">

<g transform="translate(0.000000,169.000000) scale(0.100000,-0.100000)"
fill="#000000" stroke="none">
<path d="M830 1610 c-26 -26 -25 -51 1 -84 20 -26 22 -26 40 -10 23 21 25 76
3 98 -20 20 -20 20 -44 -4z m50 -53 c0 -4 -5 -17 -11 -28 -8 -16 -13 -18 -25
-8 -17 14 -18 33 -3 61 11 21 12 21 25 3 8 -10 14 -23 14 -28z"/>
<path d="M685 1538 c-16 -6 -39 -18 -50 -28 -11 -10 -38 -21 -60 -25 l-40 -8
40 -8 c35 -6 44 -4 70 21 17 15 44 35 60 43 34 18 25 20 -20 5z"/>
<path d="M1012 1531 c20 -12 45 -32 56 -45 18 -23 24 -25 63 -17 l44 7 -42 8
c-24 4 -45 12 -49 17 -7 12 -52 35 -84 43 -17 5 -14 0 12 -13z"/>
<path d="M684 1476 c-21 -21 -34 -44 -34 -60 0 -23 4 -26 33 -26 29 0 105 36
95 45 -2 3 -21 0 -42 -6 -43 -12 -55 -6 -40 19 28 44 104 40 129 -8 21 -40 19
-54 -10 -87 l-25 -28 6 31 c6 32 -7 51 -26 39 -8 -5 -7 -11 1 -21 17 -21 5
-41 -39 -63 -22 -11 -47 -28 -56 -36 -15 -15 -16 -15 -16 3 0 11 16 34 35 51
l36 31 -30 0 c-37 0 -61 -31 -61 -80 0 -52 12 -65 36 -39 10 12 44 34 75 50
31 15 67 41 81 57 l24 29 16 -26 c9 -16 41 -39 80 -58 36 -17 73 -42 82 -54
19 -28 26 -22 33 30 7 55 -16 91 -58 91 l-30 0 35 -34 c47 -43 51 -80 5 -42
-17 14 -36 26 -43 26 -7 0 -21 9 -32 21 -15 16 -16 24 -6 39 15 25 -4 38 -25
17 -12 -12 -13 -19 -3 -38 10 -22 9 -21 -14 4 -14 15 -26 39 -26 53 0 34 42
74 77 74 33 0 73 -25 73 -46 0 -17 -18 -18 -56 -4 -40 15 -41 4 -3 -19 19 -12
49 -21 67 -21 28 0 32 3 32 26 0 16 -13 39 -34 60 -47 47 -95 47 -139 2 l-32
-33 -31 33 c-45 45 -93 45 -140 -2z"/>
<path d="M493 1420 c-54 -32 -57 -111 -8 -175 38 -50 46 -79 30 -101 -19 -26
-18 -34 4 -34 22 0 32 19 25 52 -5 22 -5 22 10 4 9 -11 16 -37 16 -58 0 -52
-27 -78 -81 -78 -33 0 -47 6 -72 33 l-32 32 28 3 c15 2 41 -4 58 -12 21 -10
29 -11 27 -3 -2 7 -21 20 -41 31 -43 21 -107 15 -107 -9 0 -19 59 -85 76 -85
8 0 14 -4 14 -10 0 -5 -6 -10 -14 -10 -17 0 -76 -65 -76 -85 0 -36 119 -24
140 15 9 17 8 18 -20 4 -16 -9 -42 -14 -57 -12 l-28 3 32 33 c25 26 39 32 72
32 54 0 81 -26 81 -78 0 -21 -7 -47 -16 -58 -15 -18 -15 -18 -10 4 7 33 -3 52
-25 52 -22 0 -23 -8 -4 -34 16 -22 8 -51 -30 -101 -29 -36 -41 -90 -31 -130 8
-30 60 -65 97 -65 65 0 99 82 50 122 -31 24 -87 24 -100 -1 -14 -25 9 -57 35
-47 15 6 16 9 5 16 -17 10 -7 40 13 40 14 0 46 -36 46 -52 0 -5 -9 -17 -20
-28 -44 -44 -110 -10 -110 55 0 30 10 47 65 105 35 37 67 80 71 95 9 38 -18
90 -55 106 -38 17 -38 21 -2 37 37 16 66 70 57 106 -4 15 -36 59 -71 96 -55
58 -65 75 -65 105 0 42 29 75 65 75 23 0 65 -31 65 -48 0 -16 -32 -52 -46 -52
-20 0 -30 30 -13 40 11 7 10 10 -5 16 -26 10 -49 -22 -35 -47 13 -25 69 -25
100 -1 49 40 15 122 -50 122 -14 0 -41 -9 -58 -20z"/>
<path d="M1105 1415 c-30 -30 -31 -54 -4 -89 32 -41 109 -35 109 9 0 25 -28
41 -44 25 -7 -7 -6 -10 2 -10 7 0 12 -6 12 -14 0 -38 -56 -29 -66 10 -14 56
62 86 104 41 41 -44 30 -79 -48 -162 -52 -55 -70 -81 -70 -102 0 -39 34 -91
65 -99 32 -8 32 -20 0 -28 -31 -8 -65 -60 -65 -99 0 -21 18 -47 70 -102 58
-62 70 -80 70 -108 0 -64 -75 -101 -115 -57 -11 13 -15 27 -11 44 10 39 66 48
66 10 0 -8 -5 -14 -12 -14 -8 0 -9 -3 -2 -10 16 -16 44 0 44 25 0 44 -77 50
-109 9 -27 -35 -26 -59 4 -89 28 -29 65 -32 105 -8 60 35 65 98 15 173 -44 65
-51 92 -31 109 23 19 20 33 -6 29 -19 -2 -23 -9 -22 -35 2 -42 -3 -42 -22 2
-27 66 6 115 79 115 37 0 87 -34 87 -60 0 -16 -53 -12 -79 7 -18 12 -23 13
-19 2 2 -8 20 -23 39 -33 41 -22 109 -16 109 10 0 17 -55 76 -80 87 -13 6 -13
8 0 14 25 11 80 70 80 87 0 25 -63 31 -107 10 -20 -11 -39 -25 -41 -33 -4 -11
1 -10 19 2 26 19 79 23 79 7 0 -26 -50 -60 -87 -60 -73 0 -106 49 -79 115 19
44 24 44 22 3 -1 -27 3 -34 22 -36 26 -4 29 10 6 29 -20 17 -13 44 31 109 50
75 45 138 -15 173 -40 24 -77 21 -105 -8z"/>
<path d="M384 1325 c-4 -15 1 -39 13 -63 l19 -38 -39 10 c-30 8 -44 7 -64 -4
-42 -24 -41 -41 2 -29 37 11 106 4 138 -13 22 -11 22 -14 -13 56 -17 32 -30
69 -30 82 0 32 -18 31 -26 -1z"/>
<path d="M1295 1311 c-4 -22 -19 -59 -34 -83 l-28 -44 54 14 c39 10 66 11 99
4 51 -11 56 2 11 28 -20 11 -34 12 -65 4 l-40 -11 20 39 c13 24 18 47 14 63
-9 37 -23 30 -31 -14z"/>
<path d="M560 1250 c0 -6 7 -13 15 -17 9 -3 27 -22 41 -42 l25 -36 -7 30 c-10
44 -32 75 -54 75 -11 0 -20 -5 -20 -10z"/>
<path d="M790 1244 c-47 -20 -70 -51 -70 -97 0 -31 7 -46 35 -74 39 -39 41
-43 20 -43 -8 0 -29 -13 -46 -28 -25 -23 -32 -38 -36 -78 -8 -90 57 -148 167
-148 95 -1 163 56 163 135 0 37 -5 47 -34 71 -23 19 -28 28 -17 28 51 0 86 39
73 81 -7 20 -8 19 -25 -9 -18 -29 -52 -46 -147 -71 -77 -21 -110 -103 -60
-149 29 -28 87 -29 110 -4 35 39 11 101 -33 87 -25 -8 -25 -17 1 -33 32 -21
22 -56 -19 -60 -29 -3 -34 1 -47 32 -33 78 42 145 117 105 42 -23 56 -108 25
-149 -52 -68 -165 -66 -211 4 -9 14 -16 45 -16 72 0 39 5 51 34 80 19 19 41
34 50 34 24 0 19 15 -9 28 -35 16 -31 27 13 40 48 14 75 43 70 74 -4 33 -50
37 -72 6 -9 -12 -16 -32 -16 -44 0 -26 -36 -39 -44 -17 -13 33 -5 66 23 94 80
80 211 -12 138 -97 -18 -20 -33 -27 -58 -27 -31 1 -32 0 -12 -9 12 -6 33 -8
46 -4 96 24 96 132 0 172 -41 18 -69 17 -113 -2z m90 -82 c0 -21 -18 -42 -37
-42 -16 0 -17 32 -1 48 18 18 38 15 38 -6z"/>
<path d="M1096 1238 c-8 -13 -18 -36 -21 -53 l-7 -30 21 32 c11 18 30 38 41
45 25 16 26 28 0 28 -11 0 -26 -10 -34 -22z"/>
<path d="M296 1163 c-25 -7 -14 -59 20 -93 l25 -25 -15 30 c-18 34 -20 61 -6
70 5 3 29 10 52 14 l43 9 -50 0 c-27 0 -58 -2 -69 -5z"/>
<path d="M1320 1163 c38 -6 80 -24 80 -35 0 -5 -7 -25 -15 -45 -14 -33 -14
-34 2 -22 9 8 23 29 30 48 14 32 13 36 -3 48 -10 7 -40 12 -68 12 -28 -1 -40
-4 -26 -6z"/>
<path d="M665 1065 c-25 -25 -31 -40 -17 -48 12 -8 75 50 68 62 -11 17 -25 13
-51 -14z"/>
<path d="M215 1030 c-17 -19 -17 -21 0 -40 10 -11 30 -20 45 -20 15 0 35 9 45
20 17 19 17 21 0 40 -10 11 -30 20 -45 20 -15 0 -35 -9 -45 -20z m90 -20 c0
-18 -52 -27 -67 -12 -17 17 2 33 35 30 20 -2 32 -8 32 -18z"/>
<path d="M1408 1036 c-10 -7 -18 -19 -18 -26 0 -38 76 -52 105 -20 17 19 17
21 0 40 -21 23 -62 26 -87 6z m62 -16 c13 -9 13 -11 0 -20 -32 -21 -81 -6 -65
20 8 13 45 13 65 0z"/>
<path d="M312 947 c-12 -13 -24 -37 -28 -54 -5 -26 -3 -31 18 -36 12 -4 43 -6
68 -6 l45 1 -43 9 c-23 4 -47 11 -52 14 -14 9 -12 35 4 68 18 33 16 34 -12 4z"/>
<path d="M1385 937 c8 -20 15 -40 15 -45 0 -11 -42 -29 -80 -35 -14 -2 -2 -5
26 -6 28 0 58 5 68 12 16 12 17 16 3 48 -7 19 -21 40 -30 48 -16 12 -16 11 -2
-22z"/>
<path d="M617 830 c-10 -16 -27 -35 -38 -40 -25 -14 -25 -30 1 -30 22 0 44 30
54 73 8 35 5 34 -17 -3z"/>
<path d="M1075 835 c9 -44 33 -75 55 -75 26 0 25 12 0 28 -11 7 -30 27 -41 45
l-21 32 7 -30z"/>
<path d="M450 830 c-24 -15 -103 -21 -138 -11 -40 12 -40 -6 1 -29 20 -11 34
-12 64 -4 l39 10 -19 -38 c-12 -24 -17 -48 -13 -63 8 -32 26 -33 26 -1 0 13
13 50 30 82 16 32 28 59 27 61 -2 1 -9 -2 -17 -7z"/>
<path d="M1261 792 c15 -24 30 -61 34 -83 8 -44 22 -51 31 -14 4 16 -1 39 -14
63 l-20 39 40 -11 c31 -8 45 -7 65 4 45 26 40 39 -11 28 -33 -7 -60 -6 -99 4
l-54 14 28 -44z"/>
<path d="M646 785 c-22 -59 7 -125 55 -125 l30 0 -36 31 c-19 17 -35 40 -35
51 0 18 1 18 16 3 9 -8 33 -24 54 -35 41 -21 56 -46 40 -65 -8 -9 -8 -15 0
-20 19 -12 32 7 26 39 l-6 31 25 -28 c29 -33 31 -47 10 -87 -25 -48 -101 -52
-129 -8 -15 25 -3 31 40 19 50 -14 54 -7 13 18 -45 28 -99 28 -99 1 0 -53 51
-100 110 -100 23 0 41 9 64 33 l31 32 32 -32 c44 -46 92 -46 139 1 21 21 34
44 34 60 0 23 -4 26 -32 26 -18 0 -48 -9 -67 -21 -38 -23 -37 -34 3 -19 38 14
56 13 56 -4 0 -21 -40 -46 -73 -46 -35 0 -77 40 -77 74 0 14 12 38 26 53 23
25 24 26 14 4 -10 -19 -9 -26 3 -38 21 -21 40 -8 25 17 -10 15 -9 23 6 39 11
12 25 21 32 21 7 0 26 12 43 26 46 38 42 1 -5 -42 l-35 -34 30 0 c42 0 65 36
58 91 -7 52 -14 58 -33 30 -9 -12 -46 -37 -82 -54 -39 -19 -71 -42 -80 -58
l-16 -26 -24 29 c-14 16 -48 40 -76 55 -28 14 -63 36 -77 50 -23 21 -27 22
-33 8z"/>
<path d="M570 550 l-35 -6 40 -8 c22 -5 49 -16 60 -26 20 -17 85 -43 92 -36 2
2 -9 9 -26 15 -16 7 -41 26 -57 42 -15 16 -30 28 -33 28 -3 -1 -22 -5 -41 -9z"/>
<path d="M1067 535 c-10 -14 -35 -34 -55 -45 -20 -10 -33 -19 -29 -20 12 0 79
29 95 43 8 6 33 17 56 24 31 8 35 11 16 12 -14 1 -34 3 -45 6 -14 3 -26 -3
-38 -20z"/>
<path d="M831 494 c-11 -15 -21 -33 -21 -41 0 -21 17 -50 34 -56 41 -16 63 74
27 107 -18 16 -20 16 -40 -10z m49 -27 c0 -4 -5 -18 -11 -29 -11 -21 -12 -21
-25 -3 -17 23 -18 47 -2 63 10 10 15 9 25 -5 7 -9 13 -21 13 -26z"/>
<path d="M190 271 c5 -11 10 -51 10 -88 0 -40 5 -74 12 -81 17 -17 138 -16
138 2 0 11 -8 11 -38 3 -55 -15 -72 -5 -72 39 0 36 0 37 35 31 29 -5 35 -3 35
12 0 14 -7 16 -35 13 -33 -4 -35 -3 -35 26 0 33 -22 62 -46 62 -11 0 -12 -4
-4 -19z"/>
<path d="M291 287 c2 -1 14 -11 27 -21 22 -19 22 -19 22 2 0 17 -6 22 -27 22
-14 0 -24 -1 -22 -3z"/>
<path d="M496 190 c48 -55 91 -100 96 -100 4 0 8 40 8 88 0 55 4 92 12 100 9
9 6 12 -16 12 -23 0 -27 -3 -20 -17 4 -10 9 -40 11 -68 l4 -50 -64 68 c-48 50
-70 67 -90 67 -26 0 -22 -6 59 -100z"/>
<path d="M690 200 c5 -94 13 -110 55 -110 15 0 16 3 7 12 -7 7 -12 41 -12 84
0 53 -4 77 -16 88 -33 34 -39 20 -34 -74z"/>
<path d="M865 281 c-49 -20 -72 -74 -55 -126 15 -47 55 -67 123 -63 52 3 52 3
52 37 0 21 -6 38 -17 45 -23 14 -32 2 -16 -23 11 -18 10 -23 -5 -38 -22 -22
-66 -8 -85 27 -16 31 -8 107 15 132 18 20 17 20 -12 9z"/>
<path d="M961 264 c15 -16 25 -21 28 -13 2 7 -4 18 -15 26 -30 22 -39 15 -13
-13z"/>
<path d="M1093 237 c18 -29 41 -72 51 -95 10 -23 22 -42 26 -42 3 0 21 33 40
73 l34 72 6 -75 c4 -61 8 -75 23 -78 15 -3 17 6 17 85 0 56 4 93 12 101 9 9 7
12 -9 12 -40 0 -54 -13 -78 -66 -13 -30 -26 -54 -29 -54 -3 0 -15 19 -27 43
-29 57 -48 77 -75 77 -22 0 -22 -1 9 -53z"/>
<path d="M1410 282 c0 -4 4 -12 8 -17 5 -6 18 -34 30 -62 l21 -53 -34 0 c-18
0 -35 4 -37 10 -1 5 -13 -8 -25 -30 l-21 -40 22 0 c17 0 22 6 22 22 -1 18 5
21 37 21 28 0 42 -6 53 -21 9 -14 26 -22 42 -22 16 0 22 3 15 8 -6 4 -26 43
-43 87 -17 44 -36 86 -42 93 -12 13 -48 17 -48 4z"/>
<path d="M430 139 c0 -14 -5 -30 -12 -37 -9 -9 -6 -12 14 -12 25 0 26 2 18 31
-12 41 -20 48 -20 18z"/>
<path d="M1070 132 c0 -10 -5 -23 -12 -30 -9 -9 -4 -12 22 -12 26 0 31 3 22
12 -7 7 -12 20 -12 30 0 10 -4 18 -10 18 -5 0 -10 -8 -10 -18z"/>
</g>
</svg>
