<?xml version="1.0" standalone="no"?>
<!DOCTYPE svg PUBLIC "-//W3C//DTD SVG 20010904//EN"
 "http://www.w3.org/TR/2001/REC-SVG-20010904/DTD/svg10.dtd">
<svg version="1.0" xmlns="http://www.w3.org/2000/svg"
 width="235.000000pt" height="72.000000pt" viewBox="0 0 235.000000 72.000000"
 preserveAspectRatio="xMidYMid meet">

<g transform="translate(0.000000,72.000000) scale(0.100000,-0.100000)"
fill="#000000" stroke="none">
<path d="M9 716 c-2 -2 -3 -164 -1 -360 l2 -356 350 0 350 0 -2 358 -3 357
-346 3 c-190 1 -347 0 -350 -2z m681 -356 l0 -330 -330 0 -330 0 0 330 0 330
330 0 330 0 0 -330z"/>
<path d="M83 627 c3 -7 39 -69 81 -138 l76 -124 -85 -3 -85 -3 0 -144 0 -145
30 0 30 0 0 115 0 115 86 0 c81 0 87 -1 115 -29 39 -40 41 -111 4 -165 l-24
-36 34 0 c43 0 63 28 72 97 6 56 -8 109 -37 141 -20 21 -20 21 5 58 62 91 38
217 -49 258 -45 21 -261 24 -253 3z m196 -43 c50 -10 81 -49 81 -101 0 -48
-20 -97 -44 -106 -10 -4 -32 24 -75 97 -34 56 -61 105 -61 109 0 9 57 9 99 1z"/>
<path d="M420 634 c1 -20 38 -52 73 -63 71 -24 92 -127 38 -182 -29 -29 -61
-39 -61 -19 0 18 -16 10 -30 -14 -12 -23 -7 -34 66 -155 76 -125 80 -131 112
-131 38 0 41 -8 -48 135 -33 53 -60 98 -60 100 0 2 16 11 35 20 41 20 75 83
75 141 0 57 -37 125 -80 146 -41 20 -120 34 -120 22z"/>
<path d="M70 470 l0 -60 40 0 39 0 -36 60 c-19 33 -37 60 -39 60 -2 0 -4 -27
-4 -60z"/>
<path d="M461 125 c-13 -47 -8 -55 30 -55 35 0 35 4 5 54 l-24 39 -11 -38z"/>
<path d="M820 330 l0 -120 65 0 c52 0 69 4 85 20 23 23 26 72 6 93 -9 9 -11
19 -5 28 15 24 10 58 -11 79 -16 16 -33 20 -80 20 l-60 0 0 -120z m98 84 c14
-4 22 -14 22 -29 0 -24 -17 -35 -56 -35 -21 0 -24 5 -24 35 0 37 9 42 58 29z
m10 -100 c15 -4 22 -14 22 -30 0 -26 -26 -44 -64 -44 -24 0 -26 4 -26 40 0 35
3 40 23 40 12 0 32 -3 45 -6z"/>
<path d="M1061 334 c-23 -63 -41 -117 -41 -120 0 -2 9 -4 19 -4 12 0 23 11 30
30 9 27 14 30 56 30 42 0 47 -3 56 -30 7 -20 18 -30 31 -30 12 0 18 5 15 13
-2 6 -21 60 -42 120 -33 93 -41 107 -60 107 -20 0 -28 -14 -64 -116z m93 -11
c7 -21 4 -23 -28 -23 -20 0 -36 1 -36 3 0 2 8 26 17 53 l17 49 12 -30 c6 -17
15 -40 18 -52z"/>
<path d="M1270 331 c0 -114 1 -121 20 -121 17 0 20 7 20 50 0 42 3 50 19 50
11 0 30 -19 49 -50 22 -35 38 -50 53 -50 23 0 26 -7 -26 73 -18 27 -18 28 4
43 26 19 30 84 5 105 -9 7 -45 15 -80 17 l-64 4 0 -121z m122 67 c11 -18 10
-25 -8 -42 -8 -9 -29 -16 -45 -16 -27 0 -29 2 -29 41 l0 42 37 -6 c20 -4 40
-12 45 -19z"/>
<path d="M1490 329 l0 -121 71 4 c55 3 74 8 85 23 19 26 18 64 -3 87 -13 14
-14 21 -5 30 18 18 14 56 -8 78 -16 16 -33 20 -80 20 l-60 0 0 -121z m101 81
c10 -6 19 -19 19 -29 0 -21 -19 -31 -56 -31 -21 0 -24 5 -24 35 0 29 4 35 21
35 11 0 29 -5 40 -10z m10 -100 c42 -23 12 -70 -45 -70 -24 0 -26 4 -26 40 0
36 2 40 26 40 14 0 34 -5 45 -10z"/>
<path d="M1756 408 c-9 -24 -27 -74 -41 -112 -30 -82 -30 -86 -6 -86 12 0 23
11 30 30 9 27 14 30 55 30 40 0 45 -3 55 -30 7 -21 17 -30 31 -30 12 0 20 4
18 8 -1 5 -21 59 -43 120 -34 97 -42 112 -61 112 -17 0 -26 -10 -38 -42z m41
-106 c-16 -2 -31 -2 -33 1 -2 2 4 26 13 53 l16 49 17 -50 17 -50 -30 -3z"/>
<path d="M1940 330 c0 -113 1 -120 20 -120 17 0 20 7 20 50 0 68 25 68 65 0
22 -35 36 -50 52 -50 22 0 21 1 -9 50 l-31 51 21 15 c22 15 30 66 14 90 -14
22 -51 34 -101 34 l-51 0 0 -120z m101 80 c23 -13 25 -55 3 -64 -9 -3 -27 -6
-40 -6 -21 0 -24 4 -24 40 0 34 3 40 21 40 11 0 29 -5 40 -10z"/>
<path d="M2215 438 c-87 -240 -84 -228 -56 -228 13 0 21 9 26 30 6 28 9 30 55
30 44 0 49 -2 59 -30 6 -20 17 -30 30 -30 19 0 17 7 -22 120 -37 106 -45 120
-65 120 -12 0 -25 -6 -27 -12z m54 -120 c1 -14 -7 -18 -30 -18 -28 0 -31 2
-25 25 3 13 11 37 17 52 l11 28 13 -35 c8 -19 14 -43 14 -52z"/>
</g>
</svg>
