<svg width="56" height="55" viewBox="0 0 56 55" fill="none" xmlns="http://www.w3.org/2000/svg">
	<path d="M51.7554 40.2497C53.5534 40.2497 55.011 38.7976 55.011 37.0064C55.011 35.2152 53.5534 33.7632 51.7554 33.7632C49.9574 33.7632 48.4998 35.2152 48.4998 37.0064C48.4998 38.7976 49.9574 40.2497 51.7554 40.2497Z" fill="#106DFA"></path>
	<path d="M51.2546 13.2225C48.8338 10.5614 45.5782 9.23081 41.4043 9.23081C38.9001 9.23081 36.6462 9.81294 34.7262 10.894C32.8063 11.9751 31.3037 13.5552 30.135 15.4678C28.9663 17.3805 28.2985 19.5427 28.0481 21.9544V22.0375C27.2133 20.707 26.2116 19.6259 25.043 18.6279C25.7942 18.0458 26.4621 17.2974 27.2133 16.3826C28.2985 14.9689 28.8829 13.1394 28.8829 10.9772C28.8829 9.39713 28.4655 7.73392 27.6307 6.07071C26.796 4.40751 25.3769 2.91062 23.5404 1.74637C21.6204 0.582123 19.1996 0 16.111 0H2.25387C1.66953 0 1.08519 0.249481 0.667812 0.665284C0.25043 1.08109 0 1.66321 0 2.24533V37.5054C0 38.0875 0.25043 38.6696 0.667812 39.0854C1.08519 39.5012 1.66953 39.7507 2.25387 39.7507H16.9457C19.617 39.7507 21.9543 39.1686 23.8743 38.0875C25.7942 37.0064 27.2968 35.5095 28.2985 33.68C28.6324 33.0147 28.9663 32.3494 29.2168 31.6841C29.4672 32.4326 29.8011 33.181 30.2185 33.9295C31.3872 35.9253 32.8897 37.5054 34.8932 38.6696C36.8131 39.8339 39.067 40.416 41.4878 40.416C41.6548 40.416 41.8217 40.416 41.9887 40.416C42.0722 40.416 42.0722 40.416 42.1556 40.416C43.9086 40.3328 45.1608 39.2517 45.1608 37.3391C45.1608 35.26 43.6582 34.179 41.9052 34.179H41.2374C39.3174 34.0958 37.8149 33.5137 36.6462 32.3494C35.4775 31.1852 34.8097 29.6883 34.7262 27.6924H52.5902C53.1745 27.6924 53.7589 27.443 54.1763 27.0272C54.5936 26.6114 54.8441 26.0292 54.8441 25.4471V23.9502C54.8441 19.3764 53.5919 15.8005 51.2546 13.2225ZM6.7616 6.48652H15.6101C17.864 6.48652 19.5335 6.90232 20.6187 7.73392C21.7039 8.56553 22.2048 9.64661 22.2048 11.2267C22.2048 12.8067 21.7039 13.8878 20.6187 14.7194C19.5335 15.551 17.864 15.9668 15.6101 15.9668H6.7616V6.48652ZM21.2865 31.6841C20.1178 32.7652 18.5318 33.2642 16.3614 33.2642H6.7616V22.3702H16.3614C18.6153 22.3702 20.2848 22.8691 21.37 23.9502C22.4552 25.0313 22.956 26.2787 22.956 27.8588C22.956 29.4388 22.4552 30.6862 21.2865 31.6841ZM34.5593 21.4554C34.7262 19.7922 35.394 18.4616 36.5627 17.3805C37.8983 16.1331 39.4844 15.551 41.4043 15.551C43.5747 15.551 45.2443 16.1331 46.4964 17.2974C47.5816 18.3785 48.2494 19.709 48.3329 21.4554H34.5593Z" fill="#1D1D1B"></path>
	<path d="M6.01031 45.9355C5.42597 45.4365 4.59121 45.187 3.67297 45.187H0.500859C0.333906 45.187 0.25043 45.2702 0.166953 45.3533C0.0834765 45.4365 0 45.6028 0 45.686V54.0852C0 54.2515 0.0834765 54.3347 0.166953 54.4178C0.25043 54.501 0.333906 54.5841 0.500859 54.5841H1.00172C1.16867 54.5841 1.25215 54.501 1.33562 54.4178C1.4191 54.3347 1.50258 54.2515 1.50258 54.0852V51.0082H3.75644C4.34078 51.0082 4.92511 50.9251 5.3425 50.6756C5.84336 50.5093 6.26074 50.1766 6.51117 49.7608C6.7616 49.345 6.92855 48.7629 6.92855 48.1808C6.92855 47.1829 6.67812 46.4344 6.01031 45.9355ZM5.50945 48.0976C5.50945 48.5966 5.3425 49.0124 5.09207 49.2619C4.75816 49.5114 4.34078 49.6777 3.75644 49.6777H1.50258V46.6839H3.67297C4.92511 46.6839 5.50945 47.1829 5.50945 48.0976Z" fill="#1D1D1B"></path>
	<path d="M14.0241 53.1706H9.85023V50.5926H13.6902C13.8571 50.5926 13.9406 50.5094 14.0241 50.4263C14.1075 50.3431 14.191 50.26 14.191 50.0936V49.5947C14.191 49.4283 14.1075 49.3452 14.0241 49.262C13.9406 49.1789 13.8571 49.0957 13.6902 49.0957H9.85023V46.6009H13.9406C14.1075 46.6009 14.191 46.5177 14.2745 46.4346C14.358 46.3514 14.4414 46.2682 14.4414 46.1019V45.603C14.4414 45.4366 14.358 45.3535 14.2745 45.2703C14.191 45.1872 14.1075 45.104 13.9406 45.104H8.84852C8.68156 45.104 8.59809 45.1872 8.51461 45.2703C8.43113 45.4366 8.34766 45.603 8.34766 45.6861V54.0853C8.34766 54.2516 8.43113 54.3348 8.51461 54.418C8.59809 54.5011 8.68156 54.5843 8.84852 54.5843H14.0241C14.191 54.5843 14.2745 54.5011 14.358 54.418C14.4414 54.3348 14.5249 54.2516 14.5249 54.0853V53.5864C14.5249 53.42 14.4414 53.3369 14.358 53.2537C14.2745 53.2537 14.191 53.1706 14.0241 53.1706Z" fill="#1D1D1B"></path>
	<path d="M21.203 50.6756C21.7039 50.5093 22.1213 50.1766 22.4552 49.7608C22.7891 49.345 22.956 48.7629 22.956 48.0145C22.956 47.0997 22.6221 46.3513 22.0378 45.8523C21.4535 45.3533 20.6187 45.187 19.7005 45.187H16.6118C16.4449 45.187 16.3614 45.2702 16.2779 45.3533C16.1944 45.4365 16.111 45.5197 16.111 45.686V54.0852C16.111 54.2515 16.1944 54.3347 16.2779 54.4178C16.3614 54.501 16.4449 54.5841 16.6118 54.5841H17.1127C17.2796 54.5841 17.3631 54.501 17.4466 54.4178C17.5301 54.3347 17.6135 54.2515 17.6135 54.0852V50.9251H19.617L21.4535 54.1683C21.6204 54.4178 21.7874 54.5841 22.1213 54.5841H22.7056C22.7891 54.5841 22.956 54.5841 22.956 54.501C23.0395 54.4178 23.0395 54.3347 23.0395 54.2515C23.0395 54.1683 23.0395 54.0852 22.956 54.0852L21.203 50.6756ZM21.5369 48.0976C21.5369 49.0956 20.9526 49.5114 19.7005 49.5114H17.6135V46.6839H19.7005C20.2848 46.6839 20.7856 46.7671 21.1196 47.0165C21.37 47.1829 21.5369 47.5987 21.5369 48.0976Z" fill="#1D1D1B"></path>
	<path d="M30.6359 45.3533C30.5524 45.2702 30.4689 45.187 30.302 45.187H25.2099C25.043 45.187 24.9595 45.2702 24.876 45.3533C24.7925 45.4365 24.709 45.5197 24.709 45.686V54.0852C24.709 54.2515 24.7925 54.3347 24.876 54.4178C24.9595 54.501 25.043 54.5841 25.2099 54.5841H25.7108C25.8777 54.5841 25.9612 54.501 26.0447 54.4178C26.1281 54.3347 26.2116 54.2515 26.2116 54.0852V50.7588H30.0515C30.2185 50.7588 30.302 50.6756 30.3855 50.5924C30.4689 50.5093 30.5524 50.4261 30.5524 50.2598V49.7608C30.5524 49.5945 30.4689 49.5114 30.3855 49.4282C30.302 49.345 30.2185 49.2619 30.0515 49.2619H26.2116V46.5176H30.302C30.4689 46.5176 30.5524 46.4344 30.6359 46.3513C30.7194 46.2681 30.8028 46.1849 30.8028 46.0186V45.5197C30.7194 45.6028 30.7194 45.4365 30.6359 45.3533Z" fill="#1D1D1B"></path>
	<path d="M37.8983 53.1706H33.7245V50.5926H37.5644C37.7314 50.5926 37.8149 50.5094 37.8983 50.4263C37.9818 50.3431 38.0653 50.26 38.0653 50.0936V49.5947C38.0653 49.4283 37.9818 49.3452 37.8983 49.262C37.8149 49.1789 37.7314 49.0957 37.5644 49.0957H33.7245V46.6009H37.8149C37.9818 46.6009 38.0653 46.5177 38.1488 46.4346C38.2322 46.3514 38.3157 46.2682 38.3157 46.1019V45.603C38.3157 45.4366 38.2322 45.3535 38.1488 45.2703C38.0653 45.1872 37.9818 45.104 37.8149 45.104H32.7228C32.5558 45.104 32.4724 45.1872 32.3889 45.2703C32.3054 45.3535 32.2219 45.4366 32.2219 45.603V54.0022C32.2219 54.1685 32.3054 54.2517 32.3889 54.3348C32.4724 54.418 32.5558 54.5011 32.7228 54.5011H37.8983C38.0653 54.5011 38.1488 54.418 38.2322 54.3348C38.3157 54.2517 38.3992 54.1685 38.3992 54.0022V53.5032C38.3992 53.3369 38.3157 53.2537 38.2322 53.1706C38.1488 53.2537 38.0653 53.1706 37.8983 53.1706Z" fill="#1D1D1B"></path>
	<path d="M41.6548 47.1829C42.0721 46.7671 42.573 46.6007 43.3243 46.6007C44.0756 46.6007 44.5764 46.7671 44.9103 47.0997C45.2443 47.4323 45.4947 47.8481 45.5782 48.3471C45.5782 48.4303 45.6616 48.5966 45.7451 48.5966C45.8286 48.6798 45.9121 48.6798 46.079 48.6798H46.6634C46.7468 48.6798 46.9138 48.6798 46.9138 48.5966C46.9973 48.5134 46.9973 48.4303 46.9973 48.264C46.9973 47.8481 46.8303 47.3492 46.5799 46.8502C46.3294 46.3513 45.9121 45.9355 45.3277 45.686C44.7434 45.3533 44.0756 45.187 43.2408 45.187C42.4895 45.187 41.8217 45.3533 41.3209 45.686C40.7365 46.0186 40.3191 46.4344 39.9852 47.0165C39.6513 47.5987 39.4844 48.1808 39.4844 48.9292C39.4844 49.1787 39.4844 49.5945 39.4844 50.0935C39.4844 50.5924 39.4844 51.0082 39.4844 51.2577C39.4844 51.923 39.6513 52.5883 39.9852 53.1704C40.3191 53.7525 40.7365 54.1683 41.3209 54.501C41.9052 54.8336 42.573 55 43.2408 55C44.0756 55 44.7434 54.8336 45.3277 54.501C45.9121 54.1683 46.3294 53.7525 46.5799 53.3367C46.8303 52.8378 46.9973 52.422 46.9973 51.923C46.9973 51.8398 46.9973 51.6735 46.9138 51.6735C46.8303 51.5904 46.7468 51.5904 46.6634 51.5904H46.079C45.9955 51.5904 45.9121 51.5904 45.7451 51.6735C45.6616 51.7567 45.5782 51.8398 45.5782 51.923C45.4947 52.422 45.2443 52.8378 44.9103 53.1704C44.5764 53.5031 44.0756 53.6694 43.3243 53.6694C42.6565 53.6694 42.0721 53.4199 41.6548 53.0873C41.2374 52.6715 41.0704 52.0893 40.987 51.424C40.987 51.1746 40.987 50.8419 40.987 50.343C40.987 49.844 40.987 49.5114 40.987 49.2619C41.0704 48.0976 41.3209 47.5987 41.6548 47.1829Z" fill="#1D1D1B"></path>
	<path d="M54.6771 45.3533C54.5936 45.2702 54.5102 45.187 54.3432 45.187H48.3329C48.1659 45.187 48.0825 45.2702 47.999 45.3533C47.9155 45.4365 47.832 45.5197 47.832 45.686V46.1849C47.832 46.3513 47.9155 46.4344 47.999 46.5176C48.0825 46.6007 48.1659 46.6839 48.3329 46.6839H50.5868V54.1683C50.5868 54.3347 50.6702 54.4178 50.7537 54.501C50.8372 54.5841 50.9207 54.6673 51.0876 54.6673H51.5885C51.7554 54.6673 51.8389 54.5841 51.9224 54.501C52.0059 54.4178 52.0893 54.3347 52.0893 54.1683V46.6839H54.3432C54.5102 46.6839 54.5936 46.6007 54.6771 46.5176C54.7606 46.4344 54.8441 46.3513 54.8441 46.1849V45.686C54.8441 45.6028 54.7606 45.4365 54.6771 45.3533Z" fill="#1D1D1B"></path>
	</svg>