<?xml version="1.0" encoding="UTF-8"?>
<!DOCTYPE svg PUBLIC "-//W3C//DTD SVG 1.1//EN" "http://www.w3.org/Graphics/SVG/1.1/DTD/svg11.dtd">
<!-- Creator: CorelDRAW 2019 (64-Bit) -->
<svg xmlns="http://www.w3.org/2000/svg" xml:space="preserve" width="69px" height="84px" version="1.1" style="shape-rendering:geometricPrecision; text-rendering:geometricPrecision; image-rendering:optimizeQuality; fill-rule:evenodd; clip-rule:evenodd"
viewBox="0 0 69 84.55"
 xmlns:xlink="http://www.w3.org/1999/xlink"
 xmlns:xodm="http://www.corel.com/coreldraw/odm/2003">
 <defs>
  <style type="text/css">
   <![CDATA[
    .fil0 {fill:#000000}
   ]]>
  </style>
 </defs>
 <g id="Слой_x0020_1">
  <metadata id="CorelCorpID_0Corel-Layer"/>
  <path class="fil0" d="M49.7 21.63l0 0 0 0 0 0 -0.04 0.04c-3.76,-3.75 -7.61,-7.77 -7.61,-7.77 -0.89,-0.88 -1.75,-1.74 -2.55,-2.54l-0.01 0 -2.57 -2.57 0 0c-1.79,-1.79 -2.96,-2.96 -2.96,-2.96 -3.76,-3.76 -8.76,-5.83 -14.08,-5.83 -5.31,0 -10.31,2.07 -14.07,5.83 -4.53,4.53 -6.4,10.7 -5.65,16.61 0.54,4.22 2.5,8.23 5.65,11.55 4.4,4.64 14.97,15.34 19.65,19.65 2.49,2.29 5.57,3.71 8.96,3.71 3.38,0 6.56,-1.32 8.96,-3.71l-0.13 -0.12c-1.69,0.99 -3.8,1.56 -6.08,1.56 -3.23,0 -5.86,-1.22 -9.02,-3.82 -5.21,-4.27 -17.21,-16.95 -19.8,-19.82 -1.5,-1.66 -2.78,-3.42 -3.57,-5.38 -2.39,-5.89 -1.2,-12.91 3.57,-17.68 3.08,-3.09 7.18,-4.78 11.53,-4.78 4.36,0 8.46,1.69 11.54,4.78l9.41 9.42c3.46,3.83 7.02,7.73 9.2,9.94 2.13,2.14 5.25,3.93 8.3,4.1 3.06,0.18 6.06,-1.03 7.86,-3.18l0 0c0.72,-0.91 1.17,-1.95 1.41,-2.56 1.28,-3.26 1.46,-6.51 0.81,-9.9 -0.75,-3.88 -2.66,-7.45 -5.54,-10.32 -3.75,-3.75 -8.74,-5.82 -14.05,-5.82 -4.66,0 -9.07,1.6 -12.62,4.52l2.54 2.57c2.86,-2.27 6.38,-3.5 10.08,-3.5 4.35,0 8.44,1.69 11.51,4.77 4.77,4.76 6.14,11.76 3.5,17.83 -0.57,1.29 -1.63,2.15 -3,2.41 -0.84,0.16 -1.75,0.09 -2.68,-0.2 2.14,-2.34 3.31,-5.35 3.31,-8.54 0,-3.37 -1.31,-6.54 -3.7,-8.93 -2.39,-2.39 -5.56,-3.7 -8.94,-3.7 -2.74,0 -5.34,0.86 -7.5,2.46l2.56 2.59c1.46,-0.95 3.16,-1.46 4.94,-1.46 2.42,0 4.69,0.94 6.4,2.65 1.71,1.71 2.65,3.98 2.65,6.39 0,2.43 -0.94,4.7 -2.65,6.4l-0.33 0.35c-0.75,-0.66 -1.67,-1.53 -2.68,-2.49l0.05 -0.04 0.39 -0.39c1.02,-1.02 1.59,-2.38 1.59,-3.83 0,-1.44 -0.57,-2.8 -1.59,-3.82 -1.02,-1.02 -2.38,-1.58 -3.83,-1.58 -0.8,0 -1.58,0.17 -2.29,0.5l3.55 3.59 0.02 0.01 0.01 0.02c0.35,0.34 0.54,0.8 0.54,1.28 0,0.5 -0.19,0.95 -0.54,1.3l-0.41 0.41zm-15.78 44.63c-0.91,0 -1.7,0.25 -2.03,1.5l-1.01 6.02 -0.84 5.76 -0.13 0 -0.85 -5.76 -0.91 -5.56c0,-0.02 -0.01,-0.03 -0.01,-0.05 -0.26,-1.61 -1.1,-1.91 -2.12,-1.91l-1.21 0 3.13 16.65 0 0 0.01 0.03 0 0c0.21,0.92 1.02,1.61 2,1.61 1.02,0 1.86,-0.75 2.02,-1.72l3.17 -16.57 -1.22 0zm-28.04 15.63c-0.02,0 -0.04,0 -0.06,0l-2.87 0 0 -13.7c0,-1.63 -1.12,-1.91 -2.13,-1.91l-0.71 0 0 15.59 0.01 0c0,0 -0.03,0.91 0.11,1.52 0.15,0.62 0.8,0.95 1.19,1.05 0.39,0.09 0.93,0.09 0.93,0.09l0 0.01 5.66 0 0 -0.69 0 -0.05c0,-1.62 -1.12,-1.91 -2.13,-1.91zm12.05 -1.94c0,0.55 -0.13,1.02 -0.37,1.41 -0.24,0.38 -0.64,0.58 -1.21,0.58 -0.57,0 -0.97,-0.19 -1.2,-0.56 -0.23,-0.36 -0.35,-0.79 -0.35,-1.25l0 -9.04c0,-0.22 0.02,-0.47 0.06,-0.73 0.05,-0.27 0.13,-0.51 0.23,-0.73 0.12,-0.22 0.28,-0.4 0.49,-0.54 0.2,-0.15 0.47,-0.22 0.8,-0.22 0.59,0 1,0.2 1.22,0.59 0.22,0.4 0.33,0.85 0.33,1.34l0 9.15zm1.83 -12.39c-0.33,-0.41 -0.77,-0.74 -1.33,-0.96 -0.55,-0.21 -1.24,-0.34 -2.07,-0.34 -0.77,0 -1.43,0.14 -1.99,0.37 -0.56,0.23 -1,0.57 -1.34,0.99 -0.34,0.42 -0.62,0.9 -0.77,1.48 -0.17,0.58 -0.25,1.23 -0.25,1.94l0 9.04c0,1.45 0.36,2.52 1.04,3.28 0.69,0.77 1.78,1.19 3.28,1.19 1.52,0 2.62,-0.44 3.31,-1.24 0.71,-0.8 1.07,-1.95 1.07,-3.52l0 -8.78c0,-0.74 -0.07,-1.4 -0.22,-1.99 -0.14,-0.58 -0.4,-1.05 -0.73,-1.46zm47.86 -1.32c-1,0 -1.68,0.29 -2.11,1.88l-0.54 2.02 -0.86 3.23 -0.11 0 -0.84 -3.15 -0.66 -2.32c-0.43,-1.34 -1.09,-1.66 -2.05,-1.66l-1.42 0 3.58 10.74 0 6.12 0 0c0,0.01 0,0.01 0,0.02 0,0.78 0.63,1.41 1.42,1.41 0.77,0 1.41,-0.63 1.41,-1.41 0,-0.01 -0.01,-0.01 -0.01,-0.02l0.02 0 0 -6.12 3.55 -10.74 -1.38 0zm-11.02 15.65l-0.06 0 -2.88 0 0 -13.86c-0.05,-1.52 -1.14,-1.78 -2.13,-1.78l-0.71 0 0 15.63c0.03,0 0,0.01 0,0.01 0,0 0.03,0.91 0.17,1.53 0.15,0.61 0.8,0.95 1.19,1.04 0.29,0.06 0.66,0.08 0.83,0.09l5.72 0 0 -0.8c-0.02,-1.58 -1.13,-1.86 -2.13,-1.86zm-17.62 0.79c0.01,0.24 0.04,0.49 0.09,0.71 0.15,0.61 0.8,0.95 1.19,1.04 0.29,0.06 0.66,0.08 0.84,0.09l3.98 0c0.03,-0.01 0.06,-0.01 0.11,-0.01 1.62,0 1.91,-1.12 1.91,-2.13 0,-0.02 0,-0.03 0,-0.04l0 -0.48 -5.28 0 0 -5.28 1.79 0c1.37,-0.08 1.68,-1.03 1.71,-1.95l0 -0.75 -3.5 0 0 -4.99 3.34 0 0.03 0c1.59,0 1.9,-1.08 1.91,-2.07l0 -0.59 -8.12 0 0 16.45zm18.68 -48.09c-3.24,0 -5.86,-1.24 -9.02,-3.83 -5.21,-4.27 -14.93,-14.78 -19.8,-19.81 -2.35,-2.43 -5.57,-3.7 -8.96,-3.7 -3.38,0 -6.56,1.31 -8.95,3.7 -2.39,2.4 -3.71,5.58 -3.71,8.96 0,3.38 1.32,6.56 3.71,8.95 4.61,4.75 14.97,15.35 19.65,19.66 2.49,2.29 5.58,3.71 8.96,3.71 3.38,0 6.56,-1.31 8.96,-3.71l-0.14 -0.12c-1.68,0.99 -3.78,1.56 -6.06,1.56 -3.24,0 -5.86,-1.25 -9.02,-3.85 -5.21,-4.26 -16.33,-15.86 -19.81,-19.79 -1.49,-1.69 -2.65,-3.99 -2.65,-6.41 0,-2.42 0.94,-4.7 2.65,-6.41 1.72,-1.72 3.99,-2.66 6.41,-2.66 2.43,0 4.71,0.93 6.42,2.66 4.88,4.94 14.97,15.35 19.64,19.66 2.49,2.29 5.59,3.7 8.96,3.7 3.38,0 6.57,-1.32 8.95,-3.7l-0.12 -0.13c-1.68,0.99 -3.8,1.56 -6.07,1.56zm-37.78 -16.5c0.49,0 0.93,0.15 1.29,0.53 3.09,3.09 14.98,15.35 19.65,19.66 2.5,2.29 5.58,3.71 8.96,3.71 3.39,0 6.57,-1.32 8.95,-3.71l-0.12 -0.13c-1.68,0.99 -3.79,1.57 -6.07,1.57 -3.24,0 -5.86,-1.25 -9.03,-3.84 -5.2,-4.27 -14.92,-14.78 -19.79,-19.8 -1.01,-1.04 -2.39,-1.59 -3.84,-1.59 -1.44,0 -2.81,0.56 -3.83,1.59 -1.02,1.02 -1.59,2.38 -1.59,3.83 0,1.45 0.57,2.81 1.59,3.83 4.6,4.75 14.98,15.35 19.65,19.66 2.49,2.29 5.58,3.71 8.96,3.71 3.38,0 6.56,-1.32 8.95,-3.71l-0.12 -0.13c-1.69,0.99 -3.79,1.57 -6.07,1.57 -3.25,0 -5.86,-1.25 -9.02,-3.84 -5.21,-4.27 -18.15,-17.84 -19.81,-19.8 -0.31,-0.38 -0.53,-0.8 -0.53,-1.29 0,-0.49 0.19,-0.95 0.53,-1.29 0.35,-0.35 0.81,-0.53 1.29,-0.53z"/>
 </g>
</svg>
