<?xml version="1.0" encoding="UTF-8" standalone="no"?> <svg id="line" xmlns="http://www.w3.org/2000/svg" viewBox="0 0 64 64"><path d="M61.835,21.55a1,1,0,0,0-.128-1.257l-3.566-3.567a21.713,21.713,0,0,0-19.185-6.017L5.766,16.667a4.051,4.051,0,0,0-1.533,7.357l.138.092a4.073,4.073,0,0,0,3.1.589l31.251-6.757a25.965,25.965,0,0,1,15.128,1.27l6.776,2.711A1,1,0,0,0,61.835,21.55ZM54.6,17.361A27.952,27.952,0,0,0,38.3,15.993L7.052,22.75a2.05,2.05,0,0,1-1.571-.3l-.137-.092a2.05,2.05,0,0,1,.775-3.724L39.31,12.678A19.711,19.711,0,0,1,56.727,18.14l.122.123Z"/><path d="M50,62h6a1,1,0,0,0,1-1V24a1,1,0,0,0-.553-.895l-6-3A1,1,0,0,0,49,21V32.63l-3.132,3.655a18.912,18.912,0,0,1-5.926,4.626l-.17.085a19.081,19.081,0,0,1-8.49,2H28.243a18.991,18.991,0,0,1-15.189-7.595L12.6,34.8A7.035,7.035,0,0,0,7,32v2a5.025,5.025,0,0,1,4,2l.454.6c.123.165.259.317.387.477l-.321.642a6.585,6.585,0,0,1-3.836,3.327l.632,1.9A8.575,8.575,0,0,0,13.264,38.7a20.816,20.816,0,0,0,2.69,2.332,13.887,13.887,0,0,1-3.574,6.177l-.085.084,1.41,1.418.087-.086a15.887,15.887,0,0,0,3.917-6.469A21.015,21.015,0,0,0,20.96,43.68a16.007,16.007,0,0,1-1.644,6.451l-.211.422,1.79.894.21-.422a18.041,18.041,0,0,0,1.841-6.715,20.89,20.89,0,0,0,4.923.675l-.861,6.891,1.984.248L29.883,45h1.4c.609,0,1.218-.036,1.824-.089l.9,7.213,1.984-.248-.9-7.231a21.256,21.256,0,0,0,3.252-.872,19.109,19.109,0,0,0,2.827,6.782l1.664-1.11a17.149,17.149,0,0,1-2.559-6.176l-.055-.276c.149-.07.3-.135.449-.208l.17-.085A21.118,21.118,0,0,0,43.3,41.223a10.29,10.29,0,0,0,4.145,5.609l1.11-1.664a8.311,8.311,0,0,1-3.459-4.91l-.086-.341a21.084,21.084,0,0,0,2.377-2.331L49,35.7V61A1,1,0,0,0,50,62Zm1-2V32h4V60Zm0-32h4v2H51Zm4-3.382V26H51V22.618Z"/></svg>
